<?xml version="1.0" encoding="UTF-8" standalone="no"?>
<!-- Created with Inkscape (http://www.inkscape.org/) -->

<svg
   width="310.76822mm"
   height="60mm"
   viewBox="0 0 310.76821 60"
   version="1.1"
   id="svg5"
   xmlns="http://www.w3.org/2000/svg"
   xmlns:svg="http://www.w3.org/2000/svg">
  <defs
     id="defs2" />
  <g
     aria-label="RadioActiv8"
     id="text1830"
     style="font-stretch:condensed;font-size:50.1348px;line-height:1.25;font-family:Impact;-inkscape-font-specification:'Impact Condensed';fill:#da3749;stroke-width:1.25337"
     transform="matrix(0.97203733,0,0,0.97203733,-51.84607,-30.479187)">
    <path
       d="m 53.33753,42.402531 h 7.295005 q 7.295005,0 9.865392,0.563037 2.594868,0.563038 4.21054,2.888627 1.640152,2.301109 1.640152,7.368444 0,4.626698 -1.150554,6.217891 -1.150555,1.591192 -4.528778,1.90943 3.059985,0.758877 4.11262,2.031831 1.052635,1.272954 1.297434,2.350068 0.269278,1.052635 0.269278,5.850692 v 10.45291 H 66.776985 V 68.865284 q 0,-3.182384 -0.514077,-3.941261 Q 65.77331,64.165147 63.64356,64.165147 V 82.035461 H 53.33753 Z m 10.30603,6.780928 v 8.812758 q 1.738072,0 2.423509,-0.465118 0.709916,-0.489598 0.709916,-3.108945 v -2.17871 q 0,-1.884951 -0.685436,-2.472468 -0.660957,-0.587517 -2.447989,-0.587517 z"
       id="path1844" />
    <path
       d="m 88.9068,62.133317 h -9.277876 v -2.17871 q 0,-3.769902 0.856796,-5.801732 0.881276,-2.05631 3.500623,-3.623023 2.619348,-1.566712 6.805408,-1.566712 5.018376,0 7.564284,1.787031 2.545905,1.762552 3.059985,4.357419 0.51408,2.570388 0.51408,10.624269 v 16.303602 h -9.620596 v -2.888626 q -0.905756,1.738072 -2.350069,2.619348 -1.419833,0.856796 -3.402704,0.856796 -2.594867,0 -4.773577,-1.444313 -2.15423,-1.468793 -2.15423,-6.38925 v -2.668307 q 0,-3.647503 1.150555,-4.969416 1.150554,-1.321914 5.703813,-3.084466 4.871496,-1.90943 5.214215,-2.570387 0.342718,-0.660957 0.342718,-2.692787 0,-2.545908 -0.391678,-3.304785 -0.367198,-0.783356 -1.248474,-0.783356 -1.003675,0 -1.248474,0.660957 -0.244799,0.636477 -0.244799,3.353744 z m 3.133425,4.455338 q -2.374549,1.738072 -2.766227,2.913106 -0.367198,1.175035 -0.367198,3.378224 0,2.521428 0.318238,3.255825 0.342719,0.734396 1.321914,0.734396 0.930236,0 1.199514,-0.563037 0.293759,-0.587517 0.293759,-3.035506 z"
       id="path1846" />
    <path
       d="m 127.82982,42.402531 v 39.63293 h -9.88988 v -2.350068 q -1.41983,1.468793 -2.98654,2.203189 -1.56672,0.734397 -3.28031,0.734397 -2.30111,0 -3.99022,-1.199515 -1.68911,-1.223994 -2.17871,-2.815186 -0.46512,-1.591193 -0.46512,-5.189735 V 58.216535 q 0,-3.745422 0.46512,-5.312134 0.4896,-1.566713 2.20319,-2.741747 1.71359,-1.199514 4.08814,-1.199514 1.83599,0 3.35375,0.660957 1.54223,0.660956 2.7907,1.98287 v -9.204436 z m -9.88988,15.324407 q 0,-1.787032 -0.31824,-2.399029 -0.29375,-0.611997 -1.19951,-0.611997 -0.88128,0 -1.19951,0.563038 -0.29376,0.538557 -0.29376,2.447988 v 15.911924 q 0,1.98287 0.29376,2.619347 0.29375,0.611997 1.12607,0.611997 0.95472,0 1.27295,-0.685437 0.31824,-0.709916 0.31824,-3.427183 z"
       id="path1848" />
    <path
       d="m 141.56303,42.402531 v 5.165255 H 131.3794 v -5.165255 z m 0,7.148126 V 82.035461 H 131.3794 V 49.550657 Z"
       id="path1850" />
    <path
       d="m 167.46274,60.958282 v 7.955962 q 0,4.381899 -0.44064,6.438209 -0.44063,2.031831 -1.88495,3.818862 -1.44431,1.762552 -3.72094,2.619348 -2.25215,0.832316 -5.18973,0.832316 -3.28031,0 -5.55694,-0.709917 -2.27663,-0.734396 -3.54958,-2.17871 -1.24848,-1.468793 -1.78703,-3.525103 -0.53856,-2.08079 -0.53856,-6.21789 v -8.32316 q 0,-4.528778 0.9792,-7.074686 0.97919,-2.545908 3.5251,-4.088141 2.54591,-1.542232 6.51165,-1.542232 3.32926,0 5.70381,1.003675 2.39903,0.979195 3.69646,2.570388 1.29744,1.591192 1.76255,3.280304 0.4896,1.689112 0.4896,5.140775 z m -9.88987,-2.447988 q 0,-2.496948 -0.26928,-3.133425 -0.26928,-0.660957 -1.15055,-0.660957 -0.88128,0 -1.17504,0.660957 -0.29376,0.636477 -0.29376,3.133425 v 14.66345 q 0,2.301109 0.29376,3.011025 0.29376,0.685437 1.15056,0.685437 0.88127,0 1.15055,-0.636477 0.29376,-0.636477 0.29376,-2.741747 z"
       id="path1852" />
    <path
       d="m 188.83368,42.402531 5.89966,39.63293 h -10.55083 l -0.51408,-7.123645 h -3.69646 l -0.612,7.123645 h -10.67323 l 5.2387,-39.63293 z m -5.45901,25.483558 q -0.78336,-6.731968 -1.56671,-16.62184 -1.56671,11.358665 -1.95839,16.62184 z"
       id="path1854" />
    <path
       d="m 218.06266,61.815078 h -9.32683 v -3.745422 q 0,-1.95839 -0.31824,-2.643827 -0.31824,-0.709917 -1.17504,-0.709917 -0.85679,0 -1.15055,0.611997 -0.29376,0.611997 -0.29376,2.741747 v 15.324407 q 0,1.738071 0.44064,2.619347 0.44064,0.856796 1.29743,0.856796 1.00368,0 1.3464,-0.905756 0.36719,-0.905755 0.36719,-3.427183 v -3.867822 h 8.81276 q -0.0245,3.892302 -0.29376,5.850692 -0.2448,1.933911 -1.64015,3.990221 -1.37087,2.031831 -3.59854,3.084466 -2.22767,1.028155 -5.50798,1.028155 -4.18606,0 -6.63404,-1.419834 -2.44799,-1.444313 -3.47615,-4.0147 -1.00367,-2.594868 -1.00367,-7.343965 v -9.228916 q 0,-4.1371 0.83231,-6.24237 0.83232,-2.10527 3.54959,-3.745422 2.71726,-1.664632 6.60957,-1.664632 3.86782,0 6.60956,1.640152 2.74175,1.640152 3.64751,4.1371 0.90575,2.496948 0.90575,7.074686 z"
       id="path1856" />
    <path
       d="m 231.40419,45.217718 v 5.116295 h 2.66831 v 5.140776 h -2.66831 v 17.380716 q 0,3.206865 0.31824,3.574063 0.34272,0.367199 2.76623,0.367199 v 5.238694 h -3.99022 q -3.37823,0 -4.82254,-0.269278 -1.44431,-0.293759 -2.54591,-1.297434 -1.10159,-1.028155 -1.37087,-2.325589 -0.26928,-1.321914 -0.26928,-6.16893 V 55.474789 h -2.12975 v -5.140776 h 2.12975 v -5.116295 z"
       id="path1858" />
    <path
       d="m 246.43485,42.402531 v 5.165255 h -10.18364 v -5.165255 z m 0,7.148126 V 82.035461 H 236.25121 V 49.550657 Z"
       id="path1860" />
    <path
       d="m 270.40066,49.550657 -4.6267,32.484804 h -12.9009 l -4.96942,-32.484804 h 8.83724 l 2.76623,23.696527 q 0.31824,-2.594868 1.07711,-12.72954 0.44064,-5.654852 0.9792,-10.966987 z"
       id="path1862" />
    <path
       d="m 290.76792,59.562929 q 2.17871,0.881276 3.35374,2.643827 1.17504,1.738072 1.17504,8.323161 0,4.798057 -0.93024,7.074686 -0.93023,2.276629 -3.62302,3.745422 -2.69279,1.444313 -7.22157,1.444313 -4.40637,0 -6.97676,-1.395354 -2.57039,-1.395353 -3.69646,-3.696462 -1.1016,-2.301109 -1.1016,-7.662203 0,-3.598543 0.53856,-6.24237 0.56304,-2.643828 3.47614,-4.23502 -1.83599,-0.881276 -2.76623,-2.790707 -0.90575,-1.93391 -0.90575,-4.895976 0,-5.116296 2.83967,-7.662203 2.83966,-2.570388 8.49451,-2.570388 6.53613,0 9.03308,2.717267 2.49695,2.717267 2.49695,7.760123 0,3.206864 -0.83232,4.626698 -0.80783,1.419833 -3.35374,2.815186 z m -5.55693,-8.518999 q 0,-2.007351 -0.3672,-2.643828 -0.34272,-0.660956 -1.3464,-0.660956 -0.97919,0 -1.32191,0.709916 -0.34272,0.685437 -0.34272,2.594868 v 3.011025 q 0,1.787032 0.39168,2.472469 0.39168,0.685436 1.32191,0.685436 0.9792,0 1.32192,-0.660957 0.34272,-0.685436 0.34272,-2.790706 z m 0.19584,16.474961 q 0,-2.276629 -0.46512,-3.011026 -0.46512,-0.758876 -1.4688,-0.758876 -0.97919,0 -1.41983,0.734396 -0.41616,0.709917 -0.41616,3.035506 v 5.140775 q 0,2.570388 0.46512,3.304784 0.4896,0.734397 1.51775,0.734397 1.05264,0 1.41984,-0.734397 0.3672,-0.758876 0.3672,-3.378223 z"
       id="path1864" />
  </g>
  <text
     xml:space="preserve"
     style="font-style:normal;font-weight:normal;font-size:10.1607px;line-height:1.25;font-family:sans-serif;fill:#000000;fill-opacity:1;stroke:none;stroke-width:0.254018"
     x="-113.17628"
     y="-44.653316"
     id="text1834"><tspan
       id="tspan1832"
       style="stroke-width:0.254018"
       x="-113.17628"
       y="-44.653316" /></text>
  <path
     fill="currentColor"
     d="M 309.62963,18.715278 282.20767,0.43395405 c -0.93597,-0.5759699 -1.9349,-0.5812349 -2.87942,0 L 251.90627,18.715278 c -0.70312,0.46863 -1.13836,1.30584 -1.13836,2.14278 v 18.281188 c 0,0.837075 0.43524,1.67415 1.1385,2.142885 l 27.42196,18.283904 c 0.93597,0.575985 1.9349,0.58125 2.87942,0 l 27.42196,-18.283904 c 0.70314,-0.468615 1.13847,-1.30581 1.13847,-2.142885 V 20.858058 c -10e-5,-0.83694 -0.43533,-1.67415 -1.13859,-2.14278 z m -26.28348,-11.3171846 20.18984,13.4599646 -9.00672,6.026864 -11.18312,-7.466639 z m -5.15626,0 V 19.418283 l -11.18313,7.466639 -9.00671,-6.026864 z m -22.2657,18.2814286 6.46209,4.31919 -6.46209,4.31919 z m 22.2657,26.919808 -20.18984,-13.459964 9.00671,-6.026849 11.18313,7.466639 z m 2.57812,-16.506838 -9.10725,-6.09378 9.10725,-6.093764 9.10727,6.093764 z m 2.57814,16.506838 V 40.579156 l 11.18312,-7.466639 9.00672,6.026864 z m 22.2657,-18.281428 -6.46209,-4.31919 6.46209,-4.31919 z"
     id="path1836"
     style="fill:#da3749;fill-opacity:1;stroke-width:0.117188" />
</svg>
